<?xml version="1.0" encoding="UTF-8"?>
<svg id="Layer_1" data-name="Layer 1" xmlns="http://www.w3.org/2000/svg" xmlns:xlink="http://www.w3.org/1999/xlink" viewBox="0 0 375.35 145.16">
  <defs>
    <style>
      .cls-1 {
        fill: url(#linear-gradient-2);
      }

      .cls-2 {
        fill: #fff;
      }

      .cls-3 {
        fill: url(#linear-gradient-3);
      }

      .cls-4 {
        fill: url(#linear-gradient);
      }
    </style>
    <linearGradient id="linear-gradient" x1="47.19" y1="151.92" x2="128.2" y2="-8.67" gradientUnits="userSpaceOnUse">
      <stop offset="0" stop-color="#54bed5"/>
      <stop offset="1" stop-color="#6c28d3"/>
    </linearGradient>
    <linearGradient id="linear-gradient-2" x1="37.8" y1="147.18" x2="118.8" y2="-13.41" xlink:href="#linear-gradient"/>
    <linearGradient id="linear-gradient-3" x1="183.05" y1="59.98" x2="31.62" y2="193.11" xlink:href="#linear-gradient"/>
  </defs>
  <g>
    <polygon class="cls-4" points="143.68 0 143.68 48.6 55.13 48.6 55.02 48.41 82.97 0 143.68 0"/>
    <path class="cls-1" d="M126.34,145.16h-56.02c-8.98-1.16-16.89-5.7-22.44-12.3-.03-.03-.05-.06-.08-.1l-6-10.41h0s-14.52-25.15-14.52-25.15l-.21-.37-12.6-21.82L0,49.96v-1.36h55.13l15.25,26.41.15.26,12.66,21.93,12.6,21.83,2.23,3.87s0,0,0,.02l4.94,8.55.49.85h0c5.57,6.91,13.67,11.65,22.88,12.85Z"/>
    <path class="cls-3" d="M143.68,97.2v47.96h-17.34c-9.22-1.19-17.31-5.94-22.88-12.84h0s-.49-.86-.49-.86l-4.94-8.55s0-.02,0-.02l-2.23-3.87-12.6-21.83h60.49Z"/>
  </g>
  <g>
    <path class="cls-2" d="M239.02,57.94h0s.03,0,.04,0h29.57v-6.53c-.91,0-1.58-.03-2.01-.09-.43-.06-.79-.23-1.08-.51-.29-.28-.5-.74-.62-1.39-.56-3.15-1.38-5.75-2.47-7.81-1.09-2.06-2.52-3.68-4.28-4.86-3.03-2.03-6.55-3.05-10.55-3.05-2.18,0-4.37.29-6.58.88l.75,6.14c1.65-.47,3.3-.71,4.94-.71,3.03,0,5.56.71,7.59,2.12,1,.71,1.82,1.71,2.45,3.02.63,1.31,1.14,3.08,1.52,5.32.03.21.06.38.09.53s.06.28.09.4h-19.42s-.03,0-.04,0h0c-2.5,0-4.3-.55-5.39-1.64-.83-.88-1.27-2.03-1.37-3.43,0,0,0-.01,0-.02,0-2.32-.52-4.45-1.57-6.38-1.04-1.93-2.47-3.45-4.28-4.57-1.81-1.12-3.85-1.68-6.11-1.68-2.8,0-5.17.93-7.13,2.78-1.96,1.85-3.39,4.46-4.3,7.81-.12.38-.32,1.21-.62,2.47-.29,1.24-.55,2.15-.77,2.74s-.58,1.05-1.08,1.39c-.5.34-1.22.51-2.16.51h-4.46v-2.52c0-4.94-1.47-8.71-4.41-11.3-2.94-2.59-6.99-3.88-12.14-3.88h-3.31v6.67h3.22c2.41,0,4.34.27,5.78.82,1.44.54,2.5,1.43,3.18,2.65.68,1.22,1.02,2.91,1.02,5.05v2.52h-15.67v6.53h26.79c1.62,0,3.1-.29,4.44-.86,1.34-.57,2.45-1.41,3.33-2.49,1.32,1.12,2.76,1.96,4.3,2.52,1.54.56,3.11.84,4.7.84,2.03,0,3.9-.46,5.61-1.37,1.16-.62,2.15-1.45,2.99-2.45.27.42.57.82.91,1.17,1.72,1.77,4.55,2.65,8.5,2.65ZM224.01,50.41c-1.06.96-2.4,1.43-4.02,1.43-.94,0-1.91-.17-2.91-.51-1-.34-1.93-.85-2.78-1.52.12-.35.2-.67.24-.95.04-.28.1-.52.15-.73.15-.94.37-1.84.66-2.69.59-1.77,1.26-3.05,2.01-3.86.75-.81,1.73-1.21,2.94-1.21,1.59,0,2.87.57,3.84,1.7s1.46,2.55,1.46,4.26-.53,3.13-1.59,4.08Z"/>
    <path class="cls-2" d="M281.26,21.88h-3.53c-.71,0-1.29-.2-1.74-.6-.46-.4-.68-.92-.68-1.57s.21-1.08.62-1.39c.41-.31.94-.46,1.59-.46.5,0,1.06.12,1.68.35l1.37-2.65c-1.09-.53-2.19-.79-3.31-.79-1.44,0-2.66.42-3.66,1.26-1,.84-1.5,1.92-1.5,3.24,0,1.12.34,1.99,1.02,2.6h-1.02v2.78h9.18v-2.78Z"/>
    <rect class="cls-2" x="273.4" y="28.19" width="6.67" height="29.75"/>
    <path class="cls-2" d="M329.73,57.94h.66c2.06,0,3.89-.34,5.5-1.02,1.6-.68,2.94-1.63,3.99-2.87,1.65,2.59,4.81,3.88,9.49,3.88h24.94v-6.53h-10.2c-2.44,0-4.27-.48-5.47-1.43-1.21-.96-1.81-2.27-1.81-3.95,0-1.79.69-3.22,2.07-4.28,1.38-1.06,3.13-1.59,5.25-1.59.94,0,2.04.14,3.29.42,1.25.28,2.55.7,3.91,1.26l2.3-5.96c-1.71-.74-3.39-1.28-5.05-1.63-1.66-.35-3.19-.53-4.57-.53-2.59,0-4.94.51-7.06,1.52-2.12,1.01-3.78,2.43-4.99,4.26-1.21,1.83-1.81,3.93-1.81,6.31s.75,4.28,2.25,5.61h-3.05c-2.5,0-4.3-.54-5.39-1.63-.94-1-1.41-2.34-1.41-4.02v-20.22h-6.67v20.22c0,1.88-.52,3.3-1.54,4.24-1.03.94-2.35,1.41-3.97,1.41-2.35-.03-4.52-.19-6.49-.49-1.97-.29-5.22-.94-9.75-1.94l-1.28,6.05c2.53.56,4.16.94,4.9,1.15l2.16.49c1.29.35,2.17.79,2.63,1.32.46.53.68,1.19.68,1.99,0,1.21-.27,2.13-.82,2.76-.54.63-1.49,1.08-2.83,1.35-1.34.26-3.3.4-5.89.4h-2.6c-3.71,0-6.44-.79-8.21-2.36s-2.65-3.89-2.65-6.95c0-1.79.32-3.94.97-6.44h-6.22c-.85,2.83-1.28,5.43-1.28,7.81,0,3.27.76,5.97,2.29,8.12,1.53,2.15,3.6,3.74,6.22,4.77,2.62,1.03,5.58,1.54,8.87,1.54h2.6c5.53,0,9.61-.89,12.25-2.67,2.63-1.78,3.95-4.55,3.95-8.32,0-.77-.06-1.44-.18-2.03Z"/>
    <path class="cls-2" d="M183.73,89.6l-9.09,29.75h6.97l2.12-7.64h8.52l2.3,7.64h7.24l-9.23-29.75h-8.83ZM184.71,106.68l1.77-6.31c.49-1.72.93-3.97,1.37-5.74h.09c.44,1.77.97,3.97,1.5,5.74l1.85,6.31h-6.58Z"/>
    <rect class="cls-2" x="205.27" y="88.01" width="6.71" height="31.34"/>
    <rect class="cls-2" x="217.41" y="97.77" width="6.71" height="21.59"/>
    <path class="cls-2" d="M220.77,88.36c-2.16,0-3.58,1.46-3.53,3.4-.04,1.85,1.37,3.35,3.49,3.35s3.62-1.5,3.62-3.35c-.04-1.94-1.41-3.4-3.58-3.4Z"/>
    <path class="cls-2" d="M245.57,89.6l-9.09,29.75h6.97l2.12-7.64h8.52l2.3,7.64h7.24l-9.23-29.75h-8.83ZM246.55,106.68l1.77-6.31c.49-1.72.93-3.97,1.37-5.74h.09c.44,1.77.97,3.97,1.5,5.74l1.85,6.31h-6.58Z"/>
    <path class="cls-2" d="M280.05,97.28c-1.24,0-2.52.31-3.49.84-1.06.57-1.94,1.28-2.65,2.21h-.09v-12.32h-6.71v31.34h6.71v-12.8c0-.49.04-1.06.22-1.5.49-1.19,1.59-2.34,3.35-2.34,2.52,0,3.49,1.94,3.49,4.77v11.88h6.71v-12.62c0-6.49-3.27-9.45-7.55-9.45Z"/>
    <path class="cls-2" d="M318.32,97.28c-1.59,0-2.91.35-4.11,1.06-1.02.62-1.99,1.5-2.78,2.6h-.09c-.93-2.25-3.13-3.66-5.92-3.66-3.71,0-5.61,2.03-6.53,3.4h-.13l-.31-2.91h-5.65c.09,1.9.18,4.19.18,6.89v14.7h6.53v-12.58c0-.53.04-1.15.26-1.68.4-1.1,1.41-2.43,3.13-2.43,2.12,0,3.09,1.85,3.09,4.59v12.1h6.53v-12.62c0-.53.09-1.24.26-1.72.44-1.28,1.54-2.34,3.09-2.34,2.16,0,3.18,1.81,3.18,4.94v11.74h6.53v-12.71c0-6.45-3.13-9.36-7.28-9.36Z"/>
    <path class="cls-2" d="M340.61,97.28c-7.5,0-10.9,6.05-10.9,11.52,0,6.75,4.19,10.99,11.52,10.99,2.91,0,5.61-.44,7.81-1.32l-.88-4.55c-1.81.57-3.66.88-5.96.88-3.13,0-5.87-1.32-6.09-4.11h13.91c.09-.49.22-1.5.22-2.65,0-5.34-2.65-10.77-9.62-10.77ZM336.06,106.11c.18-1.81,1.32-4.37,4.15-4.37,3.09,0,3.8,2.74,3.8,4.37h-7.95Z"/>
    <path class="cls-2" d="M375.17,112.91v-24.9h-6.71v11.7h-.09c-.97-1.5-3.05-2.43-5.69-2.43-5.16,0-9.71,4.19-9.67,11.48,0,6.71,4.11,11.08,9.23,11.08,2.78,0,5.39-1.24,6.75-3.66h.09l.31,3.18h5.96c-.09-1.46-.18-4.02-.18-6.45ZM368.46,109.73c0,.57-.04,1.06-.18,1.54-.4,1.9-1.94,3.22-3.88,3.22-2.78,0-4.59-2.3-4.59-5.96,0-3.4,1.59-6.14,4.64-6.14,2.07,0,3.53,1.5,3.93,3.31.04.35.09.84.09,1.19v2.83Z"/>
  </g>
</svg>