<!-- SVG Icons Sprite - Portfolio Gaming Theme -->
<svg xmlns="http://www.w3.org/2000/svg" style="display: none;">
  
  <!-- Location / Map Marker -->
  <symbol id="icon-location" viewBox="0 0 24 24" fill="currentColor">
    <path d="M12 2C8.13 2 5 5.13 5 9c0 5.25 7 13 7 13s7-7.75 7-13c0-3.87-3.13-7-7-7zm0 9.5c-1.38 0-2.5-1.12-2.5-2.5s1.12-2.5 2.5-2.5 2.5 1.12 2.5 2.5-1.12 2.5-2.5 2.5z"/>
  </symbol>

  <!-- Phone -->
  <symbol id="icon-phone" viewBox="0 0 24 24" fill="currentColor">
    <path d="M6.62 10.79c1.44 2.83 3.76 5.14 6.59 6.59l2.2-2.2c.27-.27.67-.36 1.02-.24 1.12.37 2.33.57 3.57.57.55 0 1 .45 1 1V20c0 .55-.45 1-1 1-9.39 0-17-7.61-17-17 0-.55.45-1 1-1h3.5c.55 0 1 .45 1 1 0 1.25.2 2.45.57 3.57.11.35.03.74-.25 1.02l-2.2 2.2z"/>
  </symbol>

  <!-- Email / Envelope -->
  <symbol id="icon-email" viewBox="0 0 24 24" fill="currentColor">
    <path d="M20 4H4c-1.1 0-1.99.9-1.99 2L2 18c0 1.1.9 2 2 2h16c1.1 0 2-.9 2-2V6c0-1.1-.9-2-2-2zm0 4l-8 5-8-5V6l8 5 8-5v2z"/>
  </symbol>

  <!-- WhatsApp -->
  <symbol id="icon-whatsapp" viewBox="0 0 24 24" fill="currentColor">
    <path d="M17.472 14.382c-.297-.149-1.758-.867-2.03-.967-.273-.099-.47-.148-.67.15-.197.297-.767.966-.94 1.164-.173.199-.347.223-.644.075-.297-.15-1.255-.463-2.39-1.475-.883-.788-1.48-1.761-1.653-2.059-.173-.297-.018-.458.13-.606.134-.133.298-.347.446-.52.149-.174.198-.298.298-.497.099-.198.05-.371-.025-.52-.075-.149-.669-1.612-.916-2.207-.242-.579-.487-.5-.669-.51-.173-.008-.371-.01-.57-.01-.198 0-.52.074-.792.372-.272.297-1.04 1.016-1.04 2.479 0 1.462 1.065 2.875 1.213 3.074.149.198 2.096 3.2 5.077 4.487.709.306 1.262.489 1.694.625.712.227 1.36.195 1.871.118.571-.085 1.758-.719 2.006-1.413.248-.694.248-1.289.173-1.413-.074-.124-.272-.198-.57-.347m-5.421 7.403h-.004a9.87 9.87 0 01-5.031-1.378l-.361-.214-3.741.982.998-3.648-.235-.374a9.86 9.86 0 01-1.51-5.26c.001-5.45 4.436-9.884 9.888-9.884 2.64 0 5.122 1.03 6.988 2.898a9.825 9.825 0 012.893 6.994c-.003 5.45-4.437 9.884-9.885 9.884m8.413-18.297A11.815 11.815 0 0012.05 0C5.495 0 .16 5.335.157 11.892c0 2.096.547 4.142 1.588 5.945L.057 24l6.305-1.654a11.882 11.882 0 005.683 1.448h.005c6.554 0 11.89-5.335 11.893-11.893a11.821 11.821 0 00-3.48-8.413z"/>
  </symbol>

  <!-- Instagram -->
  <symbol id="icon-instagram" viewBox="0 0 24 24" fill="currentColor">
    <path d="M12 2.163c3.204 0 3.584.012 4.85.07 3.252.148 4.771 1.691 4.919 4.919.058 1.265.069 1.645.069 4.849 0 3.205-.012 3.584-.069 4.849-.149 3.225-1.664 4.771-4.919 4.919-1.266.058-1.644.07-4.85.07-3.204 0-3.584-.012-4.849-.07-3.26-.149-4.771-1.699-4.919-4.92-.058-1.265-.07-1.644-.07-4.849 0-3.204.013-3.583.07-4.849.149-3.227 1.664-4.771 4.919-4.919 1.266-.057 1.645-.069 4.849-.069zm0-2.163c-3.259 0-3.667.014-4.947.072-4.358.2-6.78 2.618-6.98 6.98-.059 1.281-.073 1.689-.073 4.948 0 3.259.014 3.668.072 4.948.2 4.358 2.618 6.78 6.98 6.98 1.281.058 1.689.072 4.948.072 3.259 0 3.668-.014 4.948-.072 4.354-.2 6.782-2.618 6.979-6.98.059-1.28.073-1.689.073-4.948 0-3.259-.014-3.667-.072-4.947-.196-4.354-2.617-6.78-6.979-6.98-1.281-.059-1.69-.073-4.949-.073zm0 5.838c-3.403 0-6.162 2.759-6.162 6.162s2.759 6.163 6.162 6.163 6.162-2.759 6.162-6.163c0-3.403-2.759-6.162-6.162-6.162zm0 10.162c-2.209 0-4-1.79-4-4 0-2.209 1.791-4 4-4s4 1.791 4 4c0 2.21-1.791 4-4 4zm6.406-11.845c-.796 0-1.441.645-1.441 1.44s.645 1.44 1.441 1.44c.795 0 1.439-.645 1.439-1.44s-.644-1.44-1.439-1.44z"/>
  </symbol>

  <!-- Twitter / X -->
  <symbol id="icon-twitter" viewBox="0 0 24 24" fill="currentColor">
    <path d="M18.244 2.25h3.308l-7.227 8.26 8.502 11.24H16.17l-5.214-6.817L4.99 21.75H1.68l7.73-8.835L1.254 2.25H8.08l4.713 6.231zm-1.161 17.52h1.833L7.084 4.126H5.117z"/>
  </symbol>

  <!-- Telegram -->
  <symbol id="icon-telegram" viewBox="0 0 24 24" fill="currentColor">
    <path d="M11.944 0A12 12 0 0 0 0 12a12 12 0 0 0 12 12 12 12 0 0 0 12-12A12 12 0 0 0 12 0a12 12 0 0 0-.056 0zm4.962 7.224c.1-.002.321.023.465.14a.506.506 0 0 1 .171.325c.016.093.036.306.02.472-.18 1.898-.962 6.502-1.36 8.627-.168.9-.499 1.201-.82 1.23-.696.065-1.225-.46-1.9-.902-1.056-.693-1.653-1.124-2.678-1.8-1.185-.78-.417-1.21.258-1.91.177-.184 3.247-2.977 3.307-3.23.007-.032.014-.15-.056-.212s-.174-.041-.249-.024c-.106.024-1.793 1.14-5.061 3.345-.48.33-.913.49-1.302.48-.428-.008-1.252-.241-1.865-.44-.752-.245-1.349-.374-1.297-.789.027-.216.325-.437.893-.663 3.498-1.524 5.83-2.529 6.998-3.014 3.332-1.386 4.025-1.627 4.476-1.635z"/>
  </symbol>

  <!-- YouTube -->
  <symbol id="icon-youtube" viewBox="0 0 24 24" fill="currentColor">
    <path d="M23.498 6.186a3.016 3.016 0 0 0-2.122-2.136C19.505 3.545 12 3.545 12 3.545s-7.505 0-9.377.505A3.017 3.017 0 0 0 .502 6.186C0 8.07 0 12 0 12s0 3.93.502 5.814a3.016 3.016 0 0 0 2.122 2.136c1.871.505 9.376.505 9.376.505s7.505 0 9.377-.505a3.015 3.015 0 0 0 2.122-2.136C24 15.93 24 12 24 12s0-3.93-.502-5.814zM9.545 15.568V8.432L15.818 12l-6.273 3.568z"/>
  </symbol>

  <!-- Pinterest -->
  <symbol id="icon-pinterest" viewBox="0 0 24 24" fill="currentColor">
    <path d="M12 0C5.373 0 0 5.372 0 12c0 5.084 3.163 9.426 7.627 11.174-.105-.949-.2-2.405.042-3.441.218-.937 1.407-5.965 1.407-5.965s-.359-.719-.359-1.782c0-1.668.967-2.914 2.171-2.914 1.023 0 1.518.769 1.518 1.69 0 1.029-.655 2.568-.994 3.995-.283 1.194.599 2.169 1.777 2.169 2.133 0 3.772-2.249 3.772-5.495 0-2.873-2.064-4.882-5.012-4.882-3.414 0-5.418 2.561-5.418 5.207 0 1.031.397 2.138.893 2.738.098.119.112.224.083.345l-.333 1.36c-.053.22-.174.267-.402.161-1.499-.698-2.436-2.889-2.436-4.649 0-3.785 2.75-7.262 7.929-7.262 4.163 0 7.398 2.967 7.398 6.931 0 4.136-2.607 7.464-6.227 7.464-1.216 0-2.359-.631-2.75-1.378l-.748 2.853c-.271 1.043-1.002 2.35-1.492 3.146C9.57 23.812 10.763 24 12 24c6.627 0 12-5.373 12-12 0-6.628-5.373-12-12-12z"/>
  </symbol>

  <!-- Behance -->
  <symbol id="icon-behance" viewBox="0 0 24 24" fill="currentColor">
    <path d="M6.938 4.503c.702 0 1.34.06 1.92.188.577.13 1.07.33 1.485.61.41.28.733.65.96 1.12.225.47.34 1.05.34 1.73 0 .74-.17 1.36-.507 1.86-.338.5-.837.9-1.502 1.22.906.26 1.576.72 2.022 1.37.448.66.665 1.45.665 2.36 0 .75-.13 1.39-.41 1.93-.28.55-.67 1-1.16 1.35-.48.348-1.05.6-1.67.767-.61.165-1.252.254-1.91.254H0V4.51h6.938v-.007zM6.545 9.63c.55 0 .99-.12 1.33-.39.33-.26.5-.68.5-1.26 0-.34-.07-.6-.19-.82-.13-.21-.3-.39-.52-.51-.21-.13-.46-.22-.74-.27-.28-.05-.57-.08-.87-.08H3.24v3.33h3.305zm.135 5.68c.31 0 .6-.03.9-.1.29-.07.54-.18.77-.33.22-.15.4-.36.53-.63.13-.27.19-.62.19-1.04 0-.84-.25-1.45-.74-1.81-.49-.37-1.13-.56-1.91-.56H3.24v4.47h3.44zM16.89 19.47c.65.86 1.6 1.3 2.86 1.3.91 0 1.69-.23 2.34-.68.65-.45 1.06-.95 1.21-1.49h2.47c-.52 1.54-1.32 2.68-2.4 3.42-1.08.74-2.38 1.1-3.89 1.1-1.06 0-2.01-.16-2.86-.5-.86-.33-1.58-.81-2.19-1.43-.6-.62-1.06-1.37-1.39-2.25-.33-.88-.49-1.86-.49-2.94 0-1.05.16-2.02.5-2.89.33-.87.79-1.62 1.39-2.25.6-.63 1.33-1.12 2.16-1.47.84-.35 1.78-.52 2.82-.52 1.13 0 2.13.21 2.98.63.86.42 1.57.99 2.13 1.71.56.72.97 1.55 1.24 2.49.27.94.36 1.94.28 3.01h-7.35c.05 1.27.4 2.28 1.05 3.13zM19.35 12.29c-.56-.79-1.44-1.18-2.64-1.18-.48 0-.9.08-1.28.24-.37.16-.69.37-.94.64-.24.27-.43.58-.56.92-.13.34-.21.69-.25 1.05h5.88c-.13-1.01-.43-1.88-.99-2.67zM15.25 6.7h5.95V8.04h-5.95V6.7z"/>
  </symbol>

  <!-- Moon (Dark Mode) -->
  <symbol id="icon-moon" viewBox="0 0 24 24" fill="currentColor">
    <path d="M21.752 15.002A9.718 9.718 0 0118 15.75c-5.385 0-9.75-4.365-9.75-9.75 0-1.33.266-2.597.748-3.752A9.753 9.753 0 003 11.25C3 16.635 7.365 21 12.75 21a9.753 9.753 0 009.002-5.998z"/>
  </symbol>

  <!-- Sun (Light Mode) -->
  <symbol id="icon-sun" viewBox="0 0 24 24" fill="currentColor">
    <path d="M12 2.25a.75.75 0 01.75.75v2.25a.75.75 0 01-1.5 0V3a.75.75 0 01.75-.75zM7.5 12a4.5 4.5 0 119 0 4.5 4.5 0 01-9 0zM18.894 6.166a.75.75 0 00-1.06-1.06l-1.591 1.59a.75.75 0 101.06 1.061l1.591-1.59zM21.75 12a.75.75 0 01-.75.75h-2.25a.75.75 0 010-1.5H21a.75.75 0 01.75.75zM17.834 18.894a.75.75 0 001.06-1.06l-1.59-1.591a.75.75 0 10-1.061 1.06l1.59 1.591zM12 18a.75.75 0 01.75.75V21a.75.75 0 01-1.5 0v-2.25A.75.75 0 0112 18zM7.758 17.303a.75.75 0 00-1.061-1.06l-1.591 1.59a.75.75 0 001.06 1.061l1.591-1.59zM6 12a.75.75 0 01-.75.75H3a.75.75 0 010-1.5h2.25A.75.75 0 016 12zM6.697 7.757a.75.75 0 001.06-1.06l-1.59-1.591a.75.75 0 00-1.061 1.06l1.59 1.591z"/>
  </symbol>

  <!-- Bars (Menu) -->
  <symbol id="icon-menu" viewBox="0 0 24 24" fill="currentColor">
    <path fill-rule="evenodd" d="M3 6.75A.75.75 0 013.75 6h16.5a.75.75 0 010 1.5H3.75A.75.75 0 013 6.75zM3 12a.75.75 0 01.75-.75h16.5a.75.75 0 010 1.5H3.75A.75.75 0 013 12zm0 5.25a.75.75 0 01.75-.75h16.5a.75.75 0 010 1.5H3.75a.75.75 0 01-.75-.75z" clip-rule="evenodd"/>
  </symbol>

  <!-- Check -->
  <symbol id="icon-check" viewBox="0 0 24 24" fill="currentColor">
    <path fill-rule="evenodd" d="M19.916 4.626a.75.75 0 01.208 1.04l-9 13.5a.75.75 0 01-1.154.114l-6-6a.75.75 0 011.06-1.06l5.353 5.353 8.493-12.739a.75.75 0 011.04-.208z" clip-rule="evenodd"/>
  </symbol>

  <!-- Copy -->
  <symbol id="icon-copy" viewBox="0 0 24 24" fill="currentColor">
    <path fill-rule="evenodd" d="M7.502 6h7.128A3.375 3.375 0 0118 9.375v9.375a3 3 0 003-3V6.108c0-1.505-1.125-2.811-2.664-2.94a48.972 48.972 0 00-.673-.05A3 3 0 0015 1.5h-1.5a3 3 0 00-2.663 1.618c-.225.015-.45.032-.673.05C8.662 3.295 7.554 4.542 7.502 6zM13.5 3A1.5 1.5 0 0012 4.5h4.5A1.5 1.5 0 0015 3h-1.5z" clip-rule="evenodd"/>
    <path fill-rule="evenodd" d="M3 9.375C3 8.339 3.84 7.5 4.875 7.5h9.75c1.036 0 1.875.84 1.875 1.875v11.25c0 1.035-.84 1.875-1.875 1.875h-9.75A1.875 1.875 0 013 20.625V9.375zM6 12a.75.75 0 01.75-.75h6a.75.75 0 010 1.5h-6A.75.75 0 016 12zm.75 2.25a.75.75 0 000 1.5h3a.75.75 0 000-1.5h-3z" clip-rule="evenodd"/>
  </symbol>

  <!-- Store -->
  <symbol id="icon-store" viewBox="0 0 24 24" fill="currentColor">
    <path d="M3.783 2.826L1 11v1a2 2 0 002 2h1v6a2 2 0 002 2h12a2 2 0 002-2v-6h1a2 2 0 002-2v-1l-2.783-8.174A2 2 0 0016.296 2H7.704a2 2 0 00-1.921 1.426zM9.5 18v-4h5v4h-5zM4 11.5l2.25-6.75h11.5L20 11.5v.5H4v-.5z"/>
  </symbol>

  <!-- Rocket -->
  <symbol id="icon-rocket" viewBox="0 0 24 24" fill="currentColor">
    <path d="M9.315 7.584C12.195 3.883 16.695 1.5 21.75 1.5a.75.75 0 01.75.75c0 5.056-2.383 9.555-6.084 12.436A6.75 6.75 0 019.75 22.5a.75.75 0 01-.75-.75v-4.131A15.838 15.838 0 016.382 15H2.25a.75.75 0 01-.75-.75 6.75 6.75 0 017.815-6.666zM15 6.75a2.25 2.25 0 100 4.5 2.25 2.25 0 000-4.5z"/>
    <path d="M5.26 17.242a.75.75 0 10-.897-1.203 5.243 5.243 0 00-2.05 5.022.75.75 0 00.625.627 5.243 5.243 0 005.022-2.051.75.75 0 10-1.202-.897 3.744 3.744 0 01-3.008 1.51c0-1.23.592-2.323 1.51-3.008z"/>
  </symbol>

  <!-- Hashtag -->
  <symbol id="icon-hashtag" viewBox="0 0 24 24" fill="currentColor">
    <path fill-rule="evenodd" d="M11.097 1.515a.75.75 0 01.589.882L10.666 7.5h4.47l1.079-5.397a.75.75 0 111.47.294L16.665 7.5h3.585a.75.75 0 010 1.5h-3.885l-1.2 6h3.585a.75.75 0 010 1.5h-3.885l-1.08 5.397a.75.75 0 11-1.47-.294l1.02-5.103h-4.47l-1.08 5.397a.75.75 0 01-1.47-.294l1.02-5.103H3.75a.75.75 0 110-1.5h3.885l1.2-6H5.25a.75.75 0 010-1.5h3.885l1.08-5.397a.75.75 0 01.882-.588zM10.365 9l-1.2 6h4.47l1.2-6h-4.47z" clip-rule="evenodd"/>
  </symbol>

  <!-- Crown -->
  <symbol id="icon-crown" viewBox="0 0 24 24" fill="currentColor">
    <path d="M12 1L3 5l1.5 10.5h15L21 5l-9-4zm0 3l5.25 2.333-.75 5.167H7.5l-.75-5.167L12 4zM6.5 17h11l.5 5H6l.5-5z"/>
  </symbol>

  <!-- Comments -->
  <symbol id="icon-comments" viewBox="0 0 24 24" fill="currentColor">
    <path fill-rule="evenodd" d="M4.848 2.771A49.144 49.144 0 0112 2.25c2.43 0 4.817.178 7.152.52 1.978.292 3.348 2.024 3.348 3.97v6.02c0 1.946-1.37 3.678-3.348 3.97a48.901 48.901 0 01-3.476.383.39.39 0 00-.297.17l-2.755 4.133a.75.75 0 01-1.248 0l-2.755-4.133a.39.39 0 00-.297-.17 48.9 48.9 0 01-3.476-.384c-1.978-.29-3.348-2.024-3.348-3.97V6.741c0-1.946 1.37-3.68 3.348-3.97zM6.75 8.25a.75.75 0 01.75-.75h9a.75.75 0 010 1.5h-9a.75.75 0 01-.75-.75zm.75 2.25a.75.75 0 000 1.5H12a.75.75 0 000-1.5H7.5z" clip-rule="evenodd"/>
  </symbol>

  <!-- Star -->
  <symbol id="icon-star" viewBox="0 0 24 24" fill="currentColor">
    <path fill-rule="evenodd" d="M10.788 3.21c.448-1.077 1.976-1.077 2.424 0l2.082 5.007 5.404.433c1.164.093 1.636 1.545.749 2.305l-4.117 3.527 1.257 5.273c.271 1.136-.964 2.033-1.96 1.425L12 18.354 7.373 21.18c-.996.608-2.231-.29-1.96-1.425l1.257-5.273-4.117-3.527c-.887-.76-.415-2.212.749-2.305l5.404-.433 2.082-5.006z" clip-rule="evenodd"/>
  </symbol>

  <!-- Gift -->
  <symbol id="icon-gift" viewBox="0 0 24 24" fill="currentColor">
    <path d="M9.375 3a1.875 1.875 0 000 3.75h1.875v4.5H3.375A1.875 1.875 0 011.5 9.375v-.75c0-1.036.84-1.875 1.875-1.875h3.193A3.375 3.375 0 0112 2.753a3.375 3.375 0 015.432 3.997h3.193c1.035 0 1.875.84 1.875 1.875v.75c0 1.036-.84 1.875-1.875 1.875H12.75v-4.5h1.875a1.875 1.875 0 10-1.875-1.875V6.75h-1.5V4.875C11.25 3.839 10.41 3 9.375 3zM11.25 12.75H3v6.75a2.25 2.25 0 002.25 2.25h6v-9zM12.75 12.75v9h6a2.25 2.25 0 002.25-2.25v-6.75h-8.25z"/>
  </symbol>

  <!-- Trophy -->
  <symbol id="icon-trophy" viewBox="0 0 24 24" fill="currentColor">
    <path fill-rule="evenodd" d="M5.166 2.621v.858c-1.035.148-2.059.33-3.071.543a.75.75 0 00-.584.859 6.753 6.753 0 006.138 5.6 6.73 6.73 0 002.743 1.346A6.707 6.707 0 019.279 15H8.54c-1.036 0-1.875.84-1.875 1.875V19.5h-.75a.75.75 0 000 1.5h12.75a.75.75 0 000-1.5h-.75v-2.625c0-1.036-.84-1.875-1.875-1.875h-.739a6.707 6.707 0 01-1.112-3.173 6.73 6.73 0 002.743-1.347 6.753 6.753 0 006.139-5.6.75.75 0 00-.585-.858 47.077 47.077 0 00-3.07-.543V2.62a.75.75 0 00-.658-.744 49.22 49.22 0 00-6.093-.377c-2.063 0-4.096.128-6.093.377a.75.75 0 00-.657.744zm0 2.629c0 1.196.312 2.32.857 3.294A5.266 5.266 0 013.16 5.337a45.6 45.6 0 012.006-.343v.256zm13.5 0v-.256c.674.1 1.343.214 2.006.343a5.265 5.265 0 01-2.863 3.207 6.72 6.72 0 00.857-3.294z" clip-rule="evenodd"/>
  </symbol>

  <!-- Chart Bar -->
  <symbol id="icon-chart" viewBox="0 0 24 24" fill="currentColor">
    <path d="M18.375 2.25c-1.035 0-1.875.84-1.875 1.875v15.75c0 1.035.84 1.875 1.875 1.875h.75c1.035 0 1.875-.84 1.875-1.875V4.125c0-1.036-.84-1.875-1.875-1.875h-.75zM9.75 8.625c0-1.036.84-1.875 1.875-1.875h.75c1.036 0 1.875.84 1.875 1.875v11.25c0 1.035-.84 1.875-1.875 1.875h-.75a1.875 1.875 0 01-1.875-1.875V8.625zM3 13.125c0-1.036.84-1.875 1.875-1.875h.75c1.036 0 1.875.84 1.875 1.875v6.75c0 1.035-.84 1.875-1.875 1.875h-.75A1.875 1.875 0 013 19.875v-6.75z"/>
  </symbol>

  <!-- Close / X -->
  <symbol id="icon-close" viewBox="0 0 24 24" fill="currentColor">
    <path fill-rule="evenodd" d="M5.47 5.47a.75.75 0 011.06 0L12 10.94l5.47-5.47a.75.75 0 111.06 1.06L13.06 12l5.47 5.47a.75.75 0 11-1.06 1.06L12 13.06l-5.47 5.47a.75.75 0 01-1.06-1.06L10.94 12 5.47 6.53a.75.75 0 010-1.06z" clip-rule="evenodd"/>
  </symbol>

  <!-- Arrow Right -->
  <symbol id="icon-arrow-right" viewBox="0 0 24 24" fill="currentColor">
    <path fill-rule="evenodd" d="M12.97 3.97a.75.75 0 011.06 0l7.5 7.5a.75.75 0 010 1.06l-7.5 7.5a.75.75 0 11-1.06-1.06l6.22-6.22H3a.75.75 0 010-1.5h16.19l-6.22-6.22a.75.75 0 010-1.06z" clip-rule="evenodd"/>
  </symbol>

  <!-- External Link -->
  <symbol id="icon-external" viewBox="0 0 24 24" fill="currentColor">
    <path fill-rule="evenodd" d="M15.75 2.25H21a.75.75 0 01.75.75v5.25a.75.75 0 01-1.5 0V4.81l-8.97 8.97a.75.75 0 11-1.06-1.06l8.97-8.97h-3.44a.75.75 0 010-1.5zm-10.5 4.5a1.5 1.5 0 00-1.5 1.5v10.5a1.5 1.5 0 001.5 1.5h10.5a1.5 1.5 0 001.5-1.5V10.5a.75.75 0 011.5 0v8.25a3 3 0 01-3 3H5.25a3 3 0 01-3-3V8.25a3 3 0 013-3h8.25a.75.75 0 010 1.5H5.25z" clip-rule="evenodd"/>
  </symbol>

  <!-- Download -->
  <symbol id="icon-download" viewBox="0 0 24 24" fill="currentColor">
    <path fill-rule="evenodd" d="M12 2.25a.75.75 0 01.75.75v11.69l3.22-3.22a.75.75 0 111.06 1.06l-4.5 4.5a.75.75 0 01-1.06 0l-4.5-4.5a.75.75 0 111.06-1.06l3.22 3.22V3a.75.75 0 01.75-.75zm-9 13.5a.75.75 0 01.75.75v2.25a1.5 1.5 0 001.5 1.5h13.5a1.5 1.5 0 001.5-1.5V16.5a.75.75 0 011.5 0v2.25a3 3 0 01-3 3H5.25a3 3 0 01-3-3V16.5a.75.75 0 01.75-.75z" clip-rule="evenodd"/>
  </symbol>

  <!-- Eye / View -->
  <symbol id="icon-eye" viewBox="0 0 24 24" fill="currentColor">
    <path d="M12 15a3 3 0 100-6 3 3 0 000 6z"/>
    <path fill-rule="evenodd" d="M1.323 11.447C2.811 6.976 7.028 3.75 12.001 3.75c4.97 0 9.185 3.223 10.675 7.69.12.362.12.752 0 1.113-1.487 4.471-5.705 7.697-10.677 7.697-4.97 0-9.186-3.223-10.675-7.69a1.762 1.762 0 010-1.113zM17.25 12a5.25 5.25 0 11-10.5 0 5.25 5.25 0 0110.5 0z" clip-rule="evenodd"/>
  </symbol>

  <!-- Heart -->
  <symbol id="icon-heart" viewBox="0 0 24 24" fill="currentColor">
    <path d="M11.645 20.91l-.007-.003-.022-.012a15.247 15.247 0 01-.383-.218 25.18 25.18 0 01-4.244-3.17C4.688 15.36 2.25 12.174 2.25 8.25 2.25 5.322 4.714 3 7.688 3A5.5 5.5 0 0112 5.052 5.5 5.5 0 0116.313 3c2.973 0 5.437 2.322 5.437 5.25 0 3.925-2.438 7.111-4.739 9.256a25.175 25.175 0 01-4.244 3.17 15.247 15.247 0 01-.383.219l-.022.012-.007.004-.003.001a.752.752 0 01-.704 0l-.003-.001z"/>
  </symbol>

  <!-- Lock -->
  <symbol id="icon-lock" viewBox="0 0 24 24" fill="currentColor">
    <path fill-rule="evenodd" d="M12 1.5a5.25 5.25 0 00-5.25 5.25v3a3 3 0 00-3 3v6.75a3 3 0 003 3h10.5a3 3 0 003-3v-6.75a3 3 0 00-3-3v-3c0-2.9-2.35-5.25-5.25-5.25zm3.75 8.25v-3a3.75 3.75 0 10-7.5 0v3h7.5z" clip-rule="evenodd"/>
  </symbol>

  <!-- Play -->
  <symbol id="icon-play" viewBox="0 0 24 24" fill="currentColor">
    <path fill-rule="evenodd" d="M4.5 5.653c0-1.426 1.529-2.33 2.779-1.643l11.54 6.348c1.295.712 1.295 2.573 0 3.285L7.28 19.991c-1.25.687-2.779-.217-2.779-1.643V5.653z" clip-rule="evenodd"/>
  </symbol>

</svg>
